<mxfile host="65bd71144e">
    <diagram id="r0shcFP4KXNRASSXgarY" name="Page-1">
        <mxGraphModel dx="1076" dy="725" grid="1" gridSize="10" guides="1" tooltips="1" connect="1" arrows="1" fold="1" page="1" pageScale="1" pageWidth="850" pageHeight="1100" math="0" shadow="0">
            <root>
                <mxCell id="0"/>
                <mxCell id="1" parent="0"/>
                <mxCell id="14" value="" style="shape=actor;whiteSpace=wrap;html=1;" vertex="1" parent="1">
                    <mxGeometry x="405.5" y="135" width="40" height="60" as="geometry"/>
                </mxCell>
                <mxCell id="17" value="Actor" style="shape=umlActor;verticalLabelPosition=bottom;verticalAlign=top;html=1;outlineConnect=0;" vertex="1" parent="1">
                    <mxGeometry x="520" y="160" width="30" height="60" as="geometry"/>
                </mxCell>
                <mxCell id="18" value="Actor" style="shape=umlActor;verticalLabelPosition=bottom;verticalAlign=top;html=1;outlineConnect=0;" vertex="1" parent="1">
                    <mxGeometry x="310" y="160" width="30" height="60" as="geometry"/>
                </mxCell>
                <mxCell id="19" value="Hello World !..." style="rounded=0;whiteSpace=wrap;html=1;" vertex="1" parent="1">
                    <mxGeometry x="365.5" y="200" width="120" height="60" as="geometry"/>
                </mxCell>
                <mxCell id="21" value="Test!&amp;nbsp; First&amp;nbsp; time use" style="rounded=1;whiteSpace=wrap;html=1;" vertex="1" parent="1">
                    <mxGeometry x="240" y="250" width="370" height="60" as="geometry"/>
                </mxCell>
                <mxCell id="22" value=".........." style="fontStyle=0;verticalAlign=top;align=center;spacingTop=-2;fillColor=none;rounded=0;whiteSpace=wrap;html=1;strokeColor=#919191;strokeWidth=2;dashed=1;container=1;collapsible=0;expand=0;recursiveResize=0;" vertex="1" parent="1">
                    <mxGeometry x="175" y="55" width="500" height="350" as="geometry"/>
                </mxCell>
                <mxCell id="23" value="Drawio vscode extantion test!" style="shape=ext;double=1;rounded=1;whiteSpace=wrap;html=1;" vertex="1" parent="1">
                    <mxGeometry x="130" y="440" width="590" height="50" as="geometry"/>
                </mxCell>
            </root>
        </mxGraphModel>
    </diagram>
</mxfile>